<mxfile host="app.diagrams.net" modified="2023-11-21T12:20:56.441Z" agent="Mozilla/5.0 (Windows NT 10.0; Win64; x64) AppleWebKit/537.36 (KHTML, like Gecko) Chrome/119.0.0.0 Safari/537.36 Edg/119.0.0.0" etag="Vw3I0dEAIDOhRZo75Hvi" version="22.1.3" type="google">
  <diagram name="Страница — 1" id="gG5ta-T8AivzgFm58fiF">
    <mxGraphModel grid="1" page="1" gridSize="10" guides="1" tooltips="1" connect="1" arrows="1" fold="1" pageScale="1" pageWidth="1654" pageHeight="1169" math="0" shadow="0">
      <root>
        <mxCell id="0" />
        <mxCell id="1" parent="0" />
        <mxCell id="K4Uggm5ie_X06czgINU2-1" value="(&lt;br&gt;0" style="rounded=0;whiteSpace=wrap;html=1;" vertex="1" parent="1">
          <mxGeometry x="70" y="240" width="30" height="50" as="geometry" />
        </mxCell>
        <mxCell id="K4Uggm5ie_X06czgINU2-2" value="(&lt;br&gt;1" style="rounded=0;whiteSpace=wrap;html=1;" vertex="1" parent="1">
          <mxGeometry x="100" y="240" width="30" height="50" as="geometry" />
        </mxCell>
        <mxCell id="K4Uggm5ie_X06czgINU2-3" value=")&lt;br&gt;2" style="rounded=0;whiteSpace=wrap;html=1;" vertex="1" parent="1">
          <mxGeometry x="130" y="240" width="30" height="50" as="geometry" />
        </mxCell>
        <mxCell id="K4Uggm5ie_X06czgINU2-4" value="(&lt;br&gt;3" style="rounded=0;whiteSpace=wrap;html=1;" vertex="1" parent="1">
          <mxGeometry x="160" y="240" width="30" height="50" as="geometry" />
        </mxCell>
        <mxCell id="K4Uggm5ie_X06czgINU2-5" value="(&lt;br&gt;4" style="rounded=0;whiteSpace=wrap;html=1;" vertex="1" parent="1">
          <mxGeometry x="190" y="240" width="30" height="50" as="geometry" />
        </mxCell>
        <mxCell id="K4Uggm5ie_X06czgINU2-6" value=")&lt;br&gt;5" style="rounded=0;whiteSpace=wrap;html=1;" vertex="1" parent="1">
          <mxGeometry x="220" y="240" width="30" height="50" as="geometry" />
        </mxCell>
        <mxCell id="K4Uggm5ie_X06czgINU2-7" value=")&lt;br&gt;6" style="rounded=0;whiteSpace=wrap;html=1;" vertex="1" parent="1">
          <mxGeometry x="250" y="240" width="30" height="50" as="geometry" />
        </mxCell>
        <mxCell id="K4Uggm5ie_X06czgINU2-8" value="(&lt;br&gt;7" style="rounded=0;whiteSpace=wrap;html=1;" vertex="1" parent="1">
          <mxGeometry x="280" y="240" width="30" height="50" as="geometry" />
        </mxCell>
        <mxCell id="K4Uggm5ie_X06czgINU2-9" value=")&lt;br&gt;8" style="rounded=0;whiteSpace=wrap;html=1;" vertex="1" parent="1">
          <mxGeometry x="310" y="240" width="30" height="50" as="geometry" />
        </mxCell>
        <mxCell id="K4Uggm5ie_X06czgINU2-10" value=")&lt;br&gt;9" style="rounded=0;whiteSpace=wrap;html=1;" vertex="1" parent="1">
          <mxGeometry x="340" y="240" width="30" height="50" as="geometry" />
        </mxCell>
        <mxCell id="K4Uggm5ie_X06czgINU2-11" value=")&lt;br&gt;10" style="rounded=0;whiteSpace=wrap;html=1;" vertex="1" parent="1">
          <mxGeometry x="370" y="240" width="30" height="50" as="geometry" />
        </mxCell>
        <mxCell id="K4Uggm5ie_X06czgINU2-12" value="i = 0" style="ellipse;whiteSpace=wrap;html=1;aspect=fixed;" vertex="1" parent="1">
          <mxGeometry x="70" y="300" width="30" height="30" as="geometry" />
        </mxCell>
        <mxCell id="K4Uggm5ie_X06czgINU2-13" value="" style="endArrow=none;html=1;rounded=0;" edge="1" parent="1">
          <mxGeometry width="50" height="50" relative="1" as="geometry">
            <mxPoint x="440" y="450" as="sourcePoint" />
            <mxPoint x="440" y="10" as="targetPoint" />
          </mxGeometry>
        </mxCell>
        <mxCell id="K4Uggm5ie_X06czgINU2-14" value="" style="endArrow=none;html=1;rounded=0;" edge="1" parent="1">
          <mxGeometry width="50" height="50" relative="1" as="geometry">
            <mxPoint x="440" y="450" as="sourcePoint" />
            <mxPoint x="560" y="450" as="targetPoint" />
          </mxGeometry>
        </mxCell>
        <mxCell id="K4Uggm5ie_X06czgINU2-15" value="" style="endArrow=none;html=1;rounded=0;" edge="1" parent="1">
          <mxGeometry width="50" height="50" relative="1" as="geometry">
            <mxPoint x="560" y="450" as="sourcePoint" />
            <mxPoint x="560" y="10" as="targetPoint" />
          </mxGeometry>
        </mxCell>
        <mxCell id="K4Uggm5ie_X06czgINU2-16" value="(&lt;br&gt;0" style="rounded=0;whiteSpace=wrap;html=1;" vertex="1" parent="1">
          <mxGeometry x="460" y="380" width="30" height="50" as="geometry" />
        </mxCell>
        <mxCell id="K4Uggm5ie_X06czgINU2-18" value="(&lt;br&gt;1" style="rounded=0;whiteSpace=wrap;html=1;" vertex="1" parent="1">
          <mxGeometry x="460" y="320" width="30" height="50" as="geometry" />
        </mxCell>
        <mxCell id="K4Uggm5ie_X06czgINU2-19" value=")&lt;br&gt;2" style="rounded=0;whiteSpace=wrap;html=1;" vertex="1" parent="1">
          <mxGeometry x="510" y="320" width="30" height="50" as="geometry" />
        </mxCell>
        <mxCell id="K4Uggm5ie_X06czgINU2-21" value="i = 1" style="ellipse;whiteSpace=wrap;html=1;aspect=fixed;" vertex="1" parent="1">
          <mxGeometry x="100" y="300" width="30" height="30" as="geometry" />
        </mxCell>
        <mxCell id="K4Uggm5ie_X06czgINU2-22" value="i = 2" style="ellipse;whiteSpace=wrap;html=1;aspect=fixed;" vertex="1" parent="1">
          <mxGeometry x="130" y="300" width="30" height="30" as="geometry" />
        </mxCell>
        <mxCell id="K4Uggm5ie_X06czgINU2-23" value="i = 2" style="ellipse;whiteSpace=wrap;html=1;aspect=fixed;" vertex="1" parent="1">
          <mxGeometry x="570" y="330" width="30" height="30" as="geometry" />
        </mxCell>
        <mxCell id="K4Uggm5ie_X06czgINU2-24" value="" style="endArrow=none;html=1;rounded=0;" edge="1" parent="1">
          <mxGeometry width="50" height="50" relative="1" as="geometry">
            <mxPoint x="450" y="380" as="sourcePoint" />
            <mxPoint x="560" y="320" as="targetPoint" />
          </mxGeometry>
        </mxCell>
        <mxCell id="K4Uggm5ie_X06czgINU2-25" value="" style="endArrow=none;html=1;rounded=0;" edge="1" parent="1">
          <mxGeometry width="50" height="50" relative="1" as="geometry">
            <mxPoint x="550" y="370" as="sourcePoint" />
            <mxPoint x="450" y="310" as="targetPoint" />
          </mxGeometry>
        </mxCell>
        <mxCell id="K4Uggm5ie_X06czgINU2-26" value="(&lt;br&gt;3" style="rounded=0;whiteSpace=wrap;html=1;" vertex="1" parent="1">
          <mxGeometry x="460" y="250" width="30" height="50" as="geometry" />
        </mxCell>
        <mxCell id="K4Uggm5ie_X06czgINU2-27" value="(&lt;br&gt;4" style="rounded=0;whiteSpace=wrap;html=1;" vertex="1" parent="1">
          <mxGeometry x="460" y="190" width="30" height="50" as="geometry" />
        </mxCell>
        <mxCell id="K4Uggm5ie_X06czgINU2-28" value=")&lt;br&gt;5" style="rounded=0;whiteSpace=wrap;html=1;" vertex="1" parent="1">
          <mxGeometry x="500" y="190" width="30" height="50" as="geometry" />
        </mxCell>
        <mxCell id="K4Uggm5ie_X06czgINU2-29" value="i = 3" style="ellipse;whiteSpace=wrap;html=1;aspect=fixed;" vertex="1" parent="1">
          <mxGeometry x="160" y="300" width="30" height="30" as="geometry" />
        </mxCell>
        <mxCell id="K4Uggm5ie_X06czgINU2-30" value="i = 4" style="ellipse;whiteSpace=wrap;html=1;aspect=fixed;" vertex="1" parent="1">
          <mxGeometry x="190" y="300" width="30" height="30" as="geometry" />
        </mxCell>
        <mxCell id="K4Uggm5ie_X06czgINU2-31" value="i = 5" style="ellipse;whiteSpace=wrap;html=1;aspect=fixed;" vertex="1" parent="1">
          <mxGeometry x="220" y="300" width="30" height="30" as="geometry" />
        </mxCell>
        <mxCell id="K4Uggm5ie_X06czgINU2-32" value="i = 5" style="ellipse;whiteSpace=wrap;html=1;aspect=fixed;" vertex="1" parent="1">
          <mxGeometry x="570" y="200" width="30" height="30" as="geometry" />
        </mxCell>
        <mxCell id="K4Uggm5ie_X06czgINU2-34" value="" style="endArrow=none;html=1;rounded=0;" edge="1" parent="1">
          <mxGeometry width="50" height="50" relative="1" as="geometry">
            <mxPoint x="540" y="250" as="sourcePoint" />
            <mxPoint x="450" y="190" as="targetPoint" />
          </mxGeometry>
        </mxCell>
        <mxCell id="K4Uggm5ie_X06czgINU2-36" value=")&lt;br&gt;6" style="rounded=0;whiteSpace=wrap;html=1;" vertex="1" parent="1">
          <mxGeometry x="500" y="250" width="30" height="50" as="geometry" />
        </mxCell>
        <mxCell id="K4Uggm5ie_X06czgINU2-37" value="i = 6" style="ellipse;whiteSpace=wrap;html=1;aspect=fixed;" vertex="1" parent="1">
          <mxGeometry x="250" y="300" width="30" height="30" as="geometry" />
        </mxCell>
        <mxCell id="K4Uggm5ie_X06czgINU2-38" value="i = 6" style="ellipse;whiteSpace=wrap;html=1;aspect=fixed;" vertex="1" parent="1">
          <mxGeometry x="570" y="260" width="30" height="30" as="geometry" />
        </mxCell>
        <mxCell id="K4Uggm5ie_X06czgINU2-39" value="" style="endArrow=none;html=1;rounded=0;" edge="1" parent="1">
          <mxGeometry width="50" height="50" relative="1" as="geometry">
            <mxPoint x="450" y="300" as="sourcePoint" />
            <mxPoint x="540" y="250" as="targetPoint" />
          </mxGeometry>
        </mxCell>
        <mxCell id="K4Uggm5ie_X06czgINU2-40" value="" style="endArrow=none;html=1;rounded=0;" edge="1" parent="1">
          <mxGeometry width="50" height="50" relative="1" as="geometry">
            <mxPoint x="450" y="250" as="sourcePoint" />
            <mxPoint x="540" y="300" as="targetPoint" />
          </mxGeometry>
        </mxCell>
        <mxCell id="K4Uggm5ie_X06czgINU2-41" value="(&lt;br&gt;7" style="rounded=0;whiteSpace=wrap;html=1;" vertex="1" parent="1">
          <mxGeometry x="460" y="130" width="30" height="50" as="geometry" />
        </mxCell>
        <mxCell id="K4Uggm5ie_X06czgINU2-42" value=")&lt;br&gt;8" style="rounded=0;whiteSpace=wrap;html=1;" vertex="1" parent="1">
          <mxGeometry x="500" y="130" width="30" height="50" as="geometry" />
        </mxCell>
        <mxCell id="K4Uggm5ie_X06czgINU2-43" value="i = 7" style="ellipse;whiteSpace=wrap;html=1;aspect=fixed;" vertex="1" parent="1">
          <mxGeometry x="280" y="300" width="30" height="30" as="geometry" />
        </mxCell>
        <mxCell id="K4Uggm5ie_X06czgINU2-44" value="i = 8" style="ellipse;whiteSpace=wrap;html=1;aspect=fixed;" vertex="1" parent="1">
          <mxGeometry x="310" y="300" width="30" height="30" as="geometry" />
        </mxCell>
        <mxCell id="K4Uggm5ie_X06czgINU2-45" value="i = 8" style="ellipse;whiteSpace=wrap;html=1;aspect=fixed;" vertex="1" parent="1">
          <mxGeometry x="570" y="140" width="30" height="30" as="geometry" />
        </mxCell>
        <mxCell id="K4Uggm5ie_X06czgINU2-46" value="" style="endArrow=none;html=1;rounded=0;" edge="1" parent="1">
          <mxGeometry width="50" height="50" relative="1" as="geometry">
            <mxPoint x="460" y="250" as="sourcePoint" />
            <mxPoint x="560" y="190" as="targetPoint" />
          </mxGeometry>
        </mxCell>
        <mxCell id="K4Uggm5ie_X06czgINU2-47" value="" style="endArrow=none;html=1;rounded=0;" edge="1" parent="1">
          <mxGeometry width="50" height="50" relative="1" as="geometry">
            <mxPoint x="450" y="170" as="sourcePoint" />
            <mxPoint x="540" y="130" as="targetPoint" />
          </mxGeometry>
        </mxCell>
        <mxCell id="K4Uggm5ie_X06czgINU2-48" value="" style="endArrow=none;html=1;rounded=0;" edge="1" parent="1">
          <mxGeometry width="50" height="50" relative="1" as="geometry">
            <mxPoint x="450" y="130" as="sourcePoint" />
            <mxPoint x="540" y="180" as="targetPoint" />
          </mxGeometry>
        </mxCell>
        <mxCell id="K4Uggm5ie_X06czgINU2-49" value=")&lt;br&gt;9" style="rounded=0;whiteSpace=wrap;html=1;" vertex="1" parent="1">
          <mxGeometry x="510" y="380" width="30" height="50" as="geometry" />
        </mxCell>
        <mxCell id="K4Uggm5ie_X06czgINU2-50" value=")&lt;br&gt;10" style="rounded=0;whiteSpace=wrap;html=1;" vertex="1" parent="1">
          <mxGeometry x="460" y="60" width="30" height="50" as="geometry" />
        </mxCell>
        <mxCell id="K4Uggm5ie_X06czgINU2-51" value="i = 9" style="ellipse;whiteSpace=wrap;html=1;aspect=fixed;" vertex="1" parent="1">
          <mxGeometry x="340" y="300" width="30" height="30" as="geometry" />
        </mxCell>
        <mxCell id="K4Uggm5ie_X06czgINU2-52" value="i = 10" style="ellipse;whiteSpace=wrap;html=1;aspect=fixed;" vertex="1" parent="1">
          <mxGeometry x="370" y="300" width="30" height="30" as="geometry" />
        </mxCell>
        <mxCell id="K4Uggm5ie_X06czgINU2-53" value="i = 9" style="ellipse;whiteSpace=wrap;html=1;aspect=fixed;" vertex="1" parent="1">
          <mxGeometry x="570" y="390" width="30" height="30" as="geometry" />
        </mxCell>
        <mxCell id="K4Uggm5ie_X06czgINU2-54" value="" style="endArrow=none;html=1;rounded=0;" edge="1" parent="1">
          <mxGeometry width="50" height="50" relative="1" as="geometry">
            <mxPoint x="450" y="440" as="sourcePoint" />
            <mxPoint x="560" y="380" as="targetPoint" />
          </mxGeometry>
        </mxCell>
        <mxCell id="K4Uggm5ie_X06czgINU2-55" value="" style="endArrow=none;html=1;rounded=0;" edge="1" parent="1">
          <mxGeometry width="50" height="50" relative="1" as="geometry">
            <mxPoint x="450" y="390" as="sourcePoint" />
            <mxPoint x="550" y="440" as="targetPoint" />
          </mxGeometry>
        </mxCell>
        <mxCell id="K4Uggm5ie_X06czgINU2-56" value="( ) ( ) ) ( )" style="rounded=0;whiteSpace=wrap;html=1;" vertex="1" parent="1">
          <mxGeometry x="100" y="470" width="70" height="30" as="geometry" />
        </mxCell>
        <mxCell id="K4Uggm5ie_X06czgINU2-57" value="_ ) ( ) ) ( )" style="rounded=0;whiteSpace=wrap;html=1;" vertex="1" parent="1">
          <mxGeometry x="-60" y="530" width="70" height="30" as="geometry" />
        </mxCell>
        <mxCell id="K4Uggm5ie_X06czgINU2-58" value="" style="endArrow=classic;html=1;rounded=0;exitX=0;exitY=1;exitDx=0;exitDy=0;entryX=0.5;entryY=0;entryDx=0;entryDy=0;" edge="1" parent="1" source="K4Uggm5ie_X06czgINU2-56" target="K4Uggm5ie_X06czgINU2-57">
          <mxGeometry width="50" height="50" relative="1" as="geometry">
            <mxPoint x="160" y="530" as="sourcePoint" />
            <mxPoint x="210" y="480" as="targetPoint" />
          </mxGeometry>
        </mxCell>
        <mxCell id="K4Uggm5ie_X06czgINU2-59" value="( _ ( ) ) ( )" style="rounded=0;whiteSpace=wrap;html=1;" vertex="1" parent="1">
          <mxGeometry x="-10" y="570" width="70" height="30" as="geometry" />
        </mxCell>
        <mxCell id="K4Uggm5ie_X06czgINU2-60" value="i : 0" style="rounded=0;whiteSpace=wrap;html=1;" vertex="1" parent="1">
          <mxGeometry x="10" y="530" width="30" height="30" as="geometry" />
        </mxCell>
        <mxCell id="K4Uggm5ie_X06czgINU2-61" value="i : 1" style="rounded=0;whiteSpace=wrap;html=1;" vertex="1" parent="1">
          <mxGeometry x="60" y="570" width="30" height="30" as="geometry" />
        </mxCell>
        <mxCell id="K4Uggm5ie_X06czgINU2-62" value="" style="endArrow=classic;html=1;rounded=0;exitX=0;exitY=1;exitDx=0;exitDy=0;entryX=0;entryY=0;entryDx=0;entryDy=0;" edge="1" parent="1" source="K4Uggm5ie_X06czgINU2-56" target="K4Uggm5ie_X06czgINU2-61">
          <mxGeometry width="50" height="50" relative="1" as="geometry">
            <mxPoint x="160" y="590" as="sourcePoint" />
            <mxPoint x="210" y="540" as="targetPoint" />
          </mxGeometry>
        </mxCell>
        <mxCell id="K4Uggm5ie_X06czgINU2-63" value="Result:" style="rounded=0;whiteSpace=wrap;html=1;" vertex="1" parent="1">
          <mxGeometry x="70" y="740" width="70" height="30" as="geometry" />
        </mxCell>
        <mxCell id="K4Uggm5ie_X06czgINU2-64" value="( _ ( ) ) ( )" style="rounded=0;whiteSpace=wrap;html=1;" vertex="1" parent="1">
          <mxGeometry x="70" y="770" width="70" height="30" as="geometry" />
        </mxCell>
        <mxCell id="K4Uggm5ie_X06czgINU2-65" value="" style="endArrow=classic;html=1;rounded=0;entryX=0.5;entryY=0;entryDx=0;entryDy=0;exitX=0;exitY=1;exitDx=0;exitDy=0;" edge="1" parent="1" source="K4Uggm5ie_X06czgINU2-59" target="K4Uggm5ie_X06czgINU2-63">
          <mxGeometry width="50" height="50" relative="1" as="geometry">
            <mxPoint x="-20" y="680" as="sourcePoint" />
            <mxPoint x="30" y="630" as="targetPoint" />
          </mxGeometry>
        </mxCell>
        <mxCell id="K4Uggm5ie_X06czgINU2-66" value="mrNow = 2" style="rounded=0;whiteSpace=wrap;html=1;" vertex="1" parent="1">
          <mxGeometry x="-130" y="530" width="70" height="30" as="geometry" />
        </mxCell>
        <mxCell id="K4Uggm5ie_X06czgINU2-67" value="mrNow = 0" style="rounded=0;whiteSpace=wrap;html=1;" vertex="1" parent="1">
          <mxGeometry x="-80" y="570" width="70" height="30" as="geometry" />
        </mxCell>
        <mxCell id="K4Uggm5ie_X06czgINU2-68" value="( ) _ ) ) ( )" style="rounded=0;whiteSpace=wrap;html=1;" vertex="1" parent="1">
          <mxGeometry x="110" y="620" width="70" height="30" as="geometry" />
        </mxCell>
        <mxCell id="K4Uggm5ie_X06czgINU2-69" value="i : 2" style="rounded=0;whiteSpace=wrap;html=1;" vertex="1" parent="1">
          <mxGeometry x="180" y="620" width="30" height="30" as="geometry" />
        </mxCell>
        <mxCell id="K4Uggm5ie_X06czgINU2-70" value="mrNow = 2" style="rounded=0;whiteSpace=wrap;html=1;" vertex="1" parent="1">
          <mxGeometry x="40" y="620" width="70" height="30" as="geometry" />
        </mxCell>
        <mxCell id="K4Uggm5ie_X06czgINU2-72" value="" style="endArrow=classic;html=1;rounded=0;exitX=0.25;exitY=1;exitDx=0;exitDy=0;entryX=1;entryY=0;entryDx=0;entryDy=0;" edge="1" parent="1" source="K4Uggm5ie_X06czgINU2-56" target="K4Uggm5ie_X06czgINU2-70">
          <mxGeometry width="50" height="50" relative="1" as="geometry">
            <mxPoint x="170" y="550" as="sourcePoint" />
            <mxPoint x="220" y="500" as="targetPoint" />
          </mxGeometry>
        </mxCell>
        <mxCell id="K4Uggm5ie_X06czgINU2-73" value="( ) ( _ ) ( )" style="rounded=0;whiteSpace=wrap;html=1;" vertex="1" parent="1">
          <mxGeometry x="200" y="570" width="70" height="30" as="geometry" />
        </mxCell>
        <mxCell id="K4Uggm5ie_X06czgINU2-74" value="i : 3" style="rounded=0;whiteSpace=wrap;html=1;" vertex="1" parent="1">
          <mxGeometry x="270" y="570" width="30" height="30" as="geometry" />
        </mxCell>
        <mxCell id="K4Uggm5ie_X06czgINU2-75" value="mrNow = 0" style="rounded=0;whiteSpace=wrap;html=1;" vertex="1" parent="1">
          <mxGeometry x="130" y="570" width="70" height="30" as="geometry" />
        </mxCell>
        <mxCell id="K4Uggm5ie_X06czgINU2-76" value="" style="endArrow=classic;html=1;rounded=0;exitX=0.5;exitY=1;exitDx=0;exitDy=0;entryX=0.5;entryY=0;entryDx=0;entryDy=0;" edge="1" parent="1" source="K4Uggm5ie_X06czgINU2-74" target="K4Uggm5ie_X06czgINU2-63">
          <mxGeometry width="50" height="50" relative="1" as="geometry">
            <mxPoint x="230" y="750" as="sourcePoint" />
            <mxPoint x="280" y="700" as="targetPoint" />
          </mxGeometry>
        </mxCell>
        <mxCell id="K4Uggm5ie_X06czgINU2-77" value="" style="endArrow=classic;html=1;rounded=0;exitX=0.5;exitY=1;exitDx=0;exitDy=0;entryX=1;entryY=0;entryDx=0;entryDy=0;" edge="1" parent="1" source="K4Uggm5ie_X06czgINU2-56" target="K4Uggm5ie_X06czgINU2-75">
          <mxGeometry width="50" height="50" relative="1" as="geometry">
            <mxPoint x="180" y="560" as="sourcePoint" />
            <mxPoint x="230" y="510" as="targetPoint" />
          </mxGeometry>
        </mxCell>
        <mxCell id="K4Uggm5ie_X06czgINU2-78" value="( ) ( ) ( )" style="rounded=0;whiteSpace=wrap;html=1;" vertex="1" parent="1">
          <mxGeometry x="70" y="800" width="70" height="30" as="geometry" />
        </mxCell>
        <mxCell id="K4Uggm5ie_X06czgINU2-79" value="( ) ( ) _ ( )" style="rounded=0;whiteSpace=wrap;html=1;" vertex="1" parent="1">
          <mxGeometry x="380" y="600" width="70" height="30" as="geometry" />
        </mxCell>
        <mxCell id="K4Uggm5ie_X06czgINU2-80" value="i : 4" style="rounded=0;whiteSpace=wrap;html=1;" vertex="1" parent="1">
          <mxGeometry x="450" y="600" width="30" height="30" as="geometry" />
        </mxCell>
        <mxCell id="K4Uggm5ie_X06czgINU2-81" value="mrNow = 0" style="rounded=0;whiteSpace=wrap;html=1;" vertex="1" parent="1">
          <mxGeometry x="310" y="600" width="70" height="30" as="geometry" />
        </mxCell>
        <mxCell id="K4Uggm5ie_X06czgINU2-82" value="" style="endArrow=classic;html=1;rounded=0;exitX=1;exitY=1;exitDx=0;exitDy=0;entryX=1;entryY=0;entryDx=0;entryDy=0;" edge="1" parent="1" source="K4Uggm5ie_X06czgINU2-56" target="K4Uggm5ie_X06czgINU2-81">
          <mxGeometry width="50" height="50" relative="1" as="geometry">
            <mxPoint x="240" y="520" as="sourcePoint" />
            <mxPoint x="290" y="470" as="targetPoint" />
          </mxGeometry>
        </mxCell>
        <mxCell id="K4Uggm5ie_X06czgINU2-83" value="( ) ( ) _ ( )" style="rounded=0;whiteSpace=wrap;html=1;" vertex="1" parent="1">
          <mxGeometry x="140" y="800" width="70" height="30" as="geometry" />
        </mxCell>
        <mxCell id="K4Uggm5ie_X06czgINU2-84" value="" style="endArrow=classic;html=1;rounded=0;exitX=1;exitY=1;exitDx=0;exitDy=0;entryX=0.5;entryY=0;entryDx=0;entryDy=0;" edge="1" parent="1" source="K4Uggm5ie_X06czgINU2-81" target="K4Uggm5ie_X06czgINU2-63">
          <mxGeometry width="50" height="50" relative="1" as="geometry">
            <mxPoint x="320" y="740" as="sourcePoint" />
            <mxPoint x="370" y="690" as="targetPoint" />
          </mxGeometry>
        </mxCell>
        <mxCell id="K4Uggm5ie_X06czgINU2-85" value="( ) ( ) ) _ )" style="rounded=0;whiteSpace=wrap;html=1;" vertex="1" parent="1">
          <mxGeometry x="570" y="600" width="70" height="30" as="geometry" />
        </mxCell>
        <mxCell id="K4Uggm5ie_X06czgINU2-86" value="i : 5" style="rounded=0;whiteSpace=wrap;html=1;" vertex="1" parent="1">
          <mxGeometry x="640" y="600" width="30" height="30" as="geometry" />
        </mxCell>
        <mxCell id="K4Uggm5ie_X06czgINU2-87" value="mrNow = 2" style="rounded=0;whiteSpace=wrap;html=1;" vertex="1" parent="1">
          <mxGeometry x="500" y="600" width="70" height="30" as="geometry" />
        </mxCell>
        <mxCell id="K4Uggm5ie_X06czgINU2-88" value="" style="endArrow=classic;html=1;rounded=0;entryX=0;entryY=0;entryDx=0;entryDy=0;exitX=1;exitY=0.5;exitDx=0;exitDy=0;" edge="1" parent="1" source="K4Uggm5ie_X06czgINU2-56" target="K4Uggm5ie_X06czgINU2-87">
          <mxGeometry width="50" height="50" relative="1" as="geometry">
            <mxPoint x="330" y="520" as="sourcePoint" />
            <mxPoint x="380" y="470" as="targetPoint" />
          </mxGeometry>
        </mxCell>
        <mxCell id="K4Uggm5ie_X06czgINU2-89" value="( ) ( ) ) ( _" style="rounded=0;whiteSpace=wrap;html=1;" vertex="1" parent="1">
          <mxGeometry x="570" y="540" width="70" height="30" as="geometry" />
        </mxCell>
        <mxCell id="K4Uggm5ie_X06czgINU2-90" value="i : 6" style="rounded=0;whiteSpace=wrap;html=1;" vertex="1" parent="1">
          <mxGeometry x="640" y="540" width="30" height="30" as="geometry" />
        </mxCell>
        <mxCell id="K4Uggm5ie_X06czgINU2-91" value="mrNow = 2" style="rounded=0;whiteSpace=wrap;html=1;" vertex="1" parent="1">
          <mxGeometry x="500" y="540" width="70" height="30" as="geometry" />
        </mxCell>
        <mxCell id="K4Uggm5ie_X06czgINU2-92" value="" style="endArrow=classic;html=1;rounded=0;entryX=0;entryY=0;entryDx=0;entryDy=0;exitX=1;exitY=0;exitDx=0;exitDy=0;" edge="1" parent="1" source="K4Uggm5ie_X06czgINU2-56" target="K4Uggm5ie_X06czgINU2-91">
          <mxGeometry width="50" height="50" relative="1" as="geometry">
            <mxPoint x="440" y="540" as="sourcePoint" />
            <mxPoint x="490" y="490" as="targetPoint" />
          </mxGeometry>
        </mxCell>
        <mxCell id="K4Uggm5ie_X06czgINU2-93" value="&amp;nbsp;) ( a ) ( ) ) ( )" style="rounded=0;whiteSpace=wrap;html=1;" vertex="1" parent="1">
          <mxGeometry x="80" y="900" width="100" height="30" as="geometry" />
        </mxCell>
        <mxCell id="K4Uggm5ie_X06czgINU2-94" value="_ ( a ) ( ) ) ( )" style="rounded=0;whiteSpace=wrap;html=1;" vertex="1" parent="1">
          <mxGeometry x="-60" y="990" width="90" height="30" as="geometry" />
        </mxCell>
        <mxCell id="K4Uggm5ie_X06czgINU2-95" value="i : 0" style="rounded=0;whiteSpace=wrap;html=1;" vertex="1" parent="1">
          <mxGeometry x="30" y="990" width="30" height="30" as="geometry" />
        </mxCell>
        <mxCell id="K4Uggm5ie_X06czgINU2-96" value="mrNow = 1" style="rounded=0;whiteSpace=wrap;html=1;" vertex="1" parent="1">
          <mxGeometry x="-130" y="990" width="70" height="30" as="geometry" />
        </mxCell>
        <mxCell id="K4Uggm5ie_X06czgINU2-97" value="" style="endArrow=classic;html=1;rounded=0;exitX=0;exitY=1;exitDx=0;exitDy=0;entryX=0;entryY=0;entryDx=0;entryDy=0;" edge="1" parent="1" source="K4Uggm5ie_X06czgINU2-93" target="K4Uggm5ie_X06czgINU2-94">
          <mxGeometry width="50" height="50" relative="1" as="geometry">
            <mxPoint x="-70" y="940" as="sourcePoint" />
            <mxPoint x="-20" y="890" as="targetPoint" />
          </mxGeometry>
        </mxCell>
        <mxCell id="K4Uggm5ie_X06czgINU2-98" value="_ _ a ) ( ) ) ( )" style="rounded=0;whiteSpace=wrap;html=1;" vertex="1" parent="1">
          <mxGeometry x="-280" y="1100" width="90" height="30" as="geometry" />
        </mxCell>
        <mxCell id="K4Uggm5ie_X06czgINU2-99" value="i : 0" style="rounded=0;whiteSpace=wrap;html=1;" vertex="1" parent="1">
          <mxGeometry x="-190" y="1100" width="30" height="30" as="geometry" />
        </mxCell>
        <mxCell id="K4Uggm5ie_X06czgINU2-100" value="mrNow = 0" style="rounded=0;whiteSpace=wrap;html=1;" vertex="1" parent="1">
          <mxGeometry x="-350" y="1100" width="70" height="30" as="geometry" />
        </mxCell>
        <mxCell id="K4Uggm5ie_X06czgINU2-101" value="_ ( _&amp;nbsp; ) ( ) ) ( )" style="rounded=0;whiteSpace=wrap;html=1;" vertex="1" parent="1">
          <mxGeometry x="-230" y="1160" width="90" height="30" as="geometry" />
        </mxCell>
        <mxCell id="K4Uggm5ie_X06czgINU2-102" value="i : 1" style="rounded=0;whiteSpace=wrap;html=1;" vertex="1" parent="1">
          <mxGeometry x="-140" y="1160" width="30" height="30" as="geometry" />
        </mxCell>
        <mxCell id="K4Uggm5ie_X06czgINU2-103" value="mrNow =&amp;nbsp;" style="rounded=0;whiteSpace=wrap;html=1;" vertex="1" parent="1">
          <mxGeometry x="-300" y="1160" width="70" height="30" as="geometry" />
        </mxCell>
        <mxCell id="K4Uggm5ie_X06czgINU2-104" value="" style="endArrow=classic;html=1;rounded=0;exitX=0;exitY=1;exitDx=0;exitDy=0;entryX=0;entryY=0;entryDx=0;entryDy=0;" edge="1" parent="1" source="K4Uggm5ie_X06czgINU2-96" target="K4Uggm5ie_X06czgINU2-98">
          <mxGeometry width="50" height="50" relative="1" as="geometry">
            <mxPoint x="-160" y="980" as="sourcePoint" />
            <mxPoint x="-110" y="930" as="targetPoint" />
          </mxGeometry>
        </mxCell>
        <mxCell id="K4Uggm5ie_X06czgINU2-107" value="" style="endArrow=classic;html=1;rounded=0;exitX=0.5;exitY=1;exitDx=0;exitDy=0;entryX=1;entryY=0;entryDx=0;entryDy=0;" edge="1" parent="1" source="K4Uggm5ie_X06czgINU2-96" target="K4Uggm5ie_X06czgINU2-101">
          <mxGeometry width="50" height="50" relative="1" as="geometry">
            <mxPoint x="-100" y="1100" as="sourcePoint" />
            <mxPoint x="-50" y="1050" as="targetPoint" />
          </mxGeometry>
        </mxCell>
        <mxCell id="K4Uggm5ie_X06czgINU2-108" value="_ ( a _&amp;nbsp; ( ) ) ( )" style="rounded=0;whiteSpace=wrap;html=1;" vertex="1" parent="1">
          <mxGeometry x="-40" y="1100" width="90" height="30" as="geometry" />
        </mxCell>
        <mxCell id="K4Uggm5ie_X06czgINU2-109" value="i : 2" style="rounded=0;whiteSpace=wrap;html=1;" vertex="1" parent="1">
          <mxGeometry x="50" y="1100" width="30" height="30" as="geometry" />
        </mxCell>
        <mxCell id="K4Uggm5ie_X06czgINU2-110" value="mrNow =&amp;nbsp;" style="rounded=0;whiteSpace=wrap;html=1;" vertex="1" parent="1">
          <mxGeometry x="-110" y="1100" width="70" height="30" as="geometry" />
        </mxCell>
        <mxCell id="K4Uggm5ie_X06czgINU2-111" value="" style="endArrow=classic;html=1;rounded=0;exitX=0;exitY=1;exitDx=0;exitDy=0;entryX=1;entryY=0;entryDx=0;entryDy=0;" edge="1" parent="1" source="K4Uggm5ie_X06czgINU2-94" target="K4Uggm5ie_X06czgINU2-110">
          <mxGeometry width="50" height="50" relative="1" as="geometry">
            <mxPoint x="90" y="1080" as="sourcePoint" />
            <mxPoint x="140" y="1030" as="targetPoint" />
          </mxGeometry>
        </mxCell>
        <mxCell id="K4Uggm5ie_X06czgINU2-112" value="Result:" style="rounded=0;whiteSpace=wrap;html=1;" vertex="1" parent="1">
          <mxGeometry x="40" y="1280" width="70" height="30" as="geometry" />
        </mxCell>
        <mxCell id="K4Uggm5ie_X06czgINU2-114" value="" style="endArrow=classic;html=1;rounded=0;exitX=0.5;exitY=1;exitDx=0;exitDy=0;entryX=0.5;entryY=0;entryDx=0;entryDy=0;" edge="1" parent="1" source="K4Uggm5ie_X06czgINU2-108" target="K4Uggm5ie_X06czgINU2-112">
          <mxGeometry width="50" height="50" relative="1" as="geometry">
            <mxPoint x="40" y="1210" as="sourcePoint" />
            <mxPoint x="90" y="1160" as="targetPoint" />
          </mxGeometry>
        </mxCell>
        <mxCell id="K4Uggm5ie_X06czgINU2-115" value="_ ( a _&amp;nbsp; ( ) ) ( )" style="rounded=0;whiteSpace=wrap;html=1;" vertex="1" parent="1">
          <mxGeometry x="40" y="1310" width="90" height="30" as="geometry" />
        </mxCell>
        <mxCell id="K4Uggm5ie_X06czgINU2-116" value="_ ( a ) _) ) ( )" style="rounded=0;whiteSpace=wrap;html=1;" vertex="1" parent="1">
          <mxGeometry x="110" y="1150" width="90" height="30" as="geometry" />
        </mxCell>
        <mxCell id="K4Uggm5ie_X06czgINU2-117" value="i : 3" style="rounded=0;whiteSpace=wrap;html=1;" vertex="1" parent="1">
          <mxGeometry x="200" y="1150" width="30" height="30" as="geometry" />
        </mxCell>
        <mxCell id="K4Uggm5ie_X06czgINU2-118" value="mrNow =&amp;nbsp;" style="rounded=0;whiteSpace=wrap;html=1;" vertex="1" parent="1">
          <mxGeometry x="40" y="1150" width="70" height="30" as="geometry" />
        </mxCell>
        <mxCell id="K4Uggm5ie_X06czgINU2-119" value="" style="endArrow=classic;html=1;rounded=0;exitX=0;exitY=1;exitDx=0;exitDy=0;entryX=0.25;entryY=0;entryDx=0;entryDy=0;" edge="1" parent="1" source="K4Uggm5ie_X06czgINU2-95" target="K4Uggm5ie_X06czgINU2-116">
          <mxGeometry width="50" height="50" relative="1" as="geometry">
            <mxPoint x="90" y="1080" as="sourcePoint" />
            <mxPoint x="140" y="1030" as="targetPoint" />
          </mxGeometry>
        </mxCell>
        <mxCell id="K4Uggm5ie_X06czgINU2-123" value="_&amp;nbsp; ( a ) ( _ ) ( )" style="rounded=0;whiteSpace=wrap;html=1;" vertex="1" parent="1">
          <mxGeometry x="230" y="1100" width="90" height="30" as="geometry" />
        </mxCell>
        <mxCell id="K4Uggm5ie_X06czgINU2-132" value="" style="edgeStyle=orthogonalEdgeStyle;rounded=0;orthogonalLoop=1;jettySize=auto;html=1;" edge="1" parent="1" source="K4Uggm5ie_X06czgINU2-124" target="K4Uggm5ie_X06czgINU2-130">
          <mxGeometry relative="1" as="geometry" />
        </mxCell>
        <mxCell id="K4Uggm5ie_X06czgINU2-124" value="i : 4" style="rounded=0;whiteSpace=wrap;html=1;" vertex="1" parent="1">
          <mxGeometry x="320" y="1100" width="30" height="30" as="geometry" />
        </mxCell>
        <mxCell id="K4Uggm5ie_X06czgINU2-125" value="mrNow = 0" style="rounded=0;whiteSpace=wrap;html=1;" vertex="1" parent="1">
          <mxGeometry x="160" y="1100" width="70" height="30" as="geometry" />
        </mxCell>
        <mxCell id="K4Uggm5ie_X06czgINU2-126" value="" style="endArrow=classic;html=1;rounded=0;exitX=1;exitY=1;exitDx=0;exitDy=0;entryX=0.5;entryY=0;entryDx=0;entryDy=0;" edge="1" parent="1" source="K4Uggm5ie_X06czgINU2-123" target="K4Uggm5ie_X06czgINU2-112">
          <mxGeometry width="50" height="50" relative="1" as="geometry">
            <mxPoint x="230" y="1270" as="sourcePoint" />
            <mxPoint x="280" y="1220" as="targetPoint" />
          </mxGeometry>
        </mxCell>
        <mxCell id="K4Uggm5ie_X06czgINU2-127" value="" style="endArrow=classic;html=1;rounded=0;exitX=1;exitY=1;exitDx=0;exitDy=0;entryX=0;entryY=0;entryDx=0;entryDy=0;" edge="1" parent="1" source="K4Uggm5ie_X06czgINU2-95" target="K4Uggm5ie_X06czgINU2-125">
          <mxGeometry width="50" height="50" relative="1" as="geometry">
            <mxPoint x="180" y="1080" as="sourcePoint" />
            <mxPoint x="230" y="1030" as="targetPoint" />
          </mxGeometry>
        </mxCell>
        <mxCell id="K4Uggm5ie_X06czgINU2-128" value="_&amp;nbsp; ( a ) (&amp;nbsp; ) _&amp;nbsp; ( )" style="rounded=0;whiteSpace=wrap;html=1;" vertex="1" parent="1">
          <mxGeometry x="300" y="1060" width="90" height="30" as="geometry" />
        </mxCell>
        <mxCell id="K4Uggm5ie_X06czgINU2-129" value="i : 5" style="rounded=0;whiteSpace=wrap;html=1;" vertex="1" parent="1">
          <mxGeometry x="390" y="1060" width="30" height="30" as="geometry" />
        </mxCell>
        <mxCell id="K4Uggm5ie_X06czgINU2-130" value="mrNow = 0" style="rounded=0;whiteSpace=wrap;html=1;" vertex="1" parent="1">
          <mxGeometry x="230" y="1060" width="70" height="30" as="geometry" />
        </mxCell>
        <mxCell id="K4Uggm5ie_X06czgINU2-131" value="" style="endArrow=classic;html=1;rounded=0;exitX=1;exitY=1;exitDx=0;exitDy=0;entryX=0.5;entryY=0;entryDx=0;entryDy=0;" edge="1" parent="1" source="K4Uggm5ie_X06czgINU2-128" target="K4Uggm5ie_X06czgINU2-134">
          <mxGeometry width="50" height="50" relative="1" as="geometry">
            <mxPoint x="370" y="1160" as="sourcePoint" />
            <mxPoint x="420" y="1110" as="targetPoint" />
          </mxGeometry>
        </mxCell>
        <mxCell id="K4Uggm5ie_X06czgINU2-133" value="_&amp;nbsp; ( a ) ( _ ) ( )" style="rounded=0;whiteSpace=wrap;html=1;" vertex="1" parent="1">
          <mxGeometry x="40" y="1340" width="90" height="30" as="geometry" />
        </mxCell>
        <mxCell id="K4Uggm5ie_X06czgINU2-134" value="_&amp;nbsp; ( a ) (&amp;nbsp; ) _&amp;nbsp; ( )" style="rounded=0;whiteSpace=wrap;html=1;" vertex="1" parent="1">
          <mxGeometry x="130" y="1340" width="90" height="30" as="geometry" />
        </mxCell>
        <mxCell id="K4Uggm5ie_X06czgINU2-135" value="" style="endArrow=classic;html=1;rounded=0;exitX=1;exitY=0.75;exitDx=0;exitDy=0;entryX=0;entryY=0;entryDx=0;entryDy=0;" edge="1" parent="1" source="K4Uggm5ie_X06czgINU2-95" target="K4Uggm5ie_X06czgINU2-130">
          <mxGeometry width="50" height="50" relative="1" as="geometry">
            <mxPoint x="220" y="1020" as="sourcePoint" />
            <mxPoint x="270" y="970" as="targetPoint" />
          </mxGeometry>
        </mxCell>
        <mxCell id="K4Uggm5ie_X06czgINU2-136" value="_&amp;nbsp; ( a ) (&amp;nbsp; ) )&amp;nbsp; _ )" style="rounded=0;whiteSpace=wrap;html=1;" vertex="1" parent="1">
          <mxGeometry x="380" y="1020" width="90" height="30" as="geometry" />
        </mxCell>
        <mxCell id="K4Uggm5ie_X06czgINU2-137" value="i : 6" style="rounded=0;whiteSpace=wrap;html=1;" vertex="1" parent="1">
          <mxGeometry x="470" y="1020" width="30" height="30" as="geometry" />
        </mxCell>
        <mxCell id="K4Uggm5ie_X06czgINU2-138" value="mrNow = 0" style="rounded=0;whiteSpace=wrap;html=1;" vertex="1" parent="1">
          <mxGeometry x="310" y="1020" width="70" height="30" as="geometry" />
        </mxCell>
        <mxCell id="K4Uggm5ie_X06czgINU2-139" value="" style="endArrow=classic;html=1;rounded=0;exitX=1;exitY=0.5;exitDx=0;exitDy=0;entryX=0;entryY=0.5;entryDx=0;entryDy=0;" edge="1" parent="1" source="K4Uggm5ie_X06czgINU2-95" target="K4Uggm5ie_X06czgINU2-138">
          <mxGeometry width="50" height="50" relative="1" as="geometry">
            <mxPoint x="270" y="1010" as="sourcePoint" />
            <mxPoint x="320" y="960" as="targetPoint" />
          </mxGeometry>
        </mxCell>
        <mxCell id="K4Uggm5ie_X06czgINU2-140" value="_&amp;nbsp; ( a ) (&amp;nbsp; ) )&amp;nbsp; ( _" style="rounded=0;whiteSpace=wrap;html=1;" vertex="1" parent="1">
          <mxGeometry x="470" y="980" width="90" height="30" as="geometry" />
        </mxCell>
        <mxCell id="K4Uggm5ie_X06czgINU2-141" value="i : 7" style="rounded=0;whiteSpace=wrap;html=1;" vertex="1" parent="1">
          <mxGeometry x="560" y="980" width="30" height="30" as="geometry" />
        </mxCell>
        <mxCell id="K4Uggm5ie_X06czgINU2-142" value="mrNow = 0" style="rounded=0;whiteSpace=wrap;html=1;" vertex="1" parent="1">
          <mxGeometry x="400" y="980" width="70" height="30" as="geometry" />
        </mxCell>
        <mxCell id="K4Uggm5ie_X06czgINU2-143" value="" style="endArrow=classic;html=1;rounded=0;entryX=0;entryY=0.5;entryDx=0;entryDy=0;exitX=1;exitY=0.5;exitDx=0;exitDy=0;" edge="1" parent="1" source="K4Uggm5ie_X06czgINU2-95" target="K4Uggm5ie_X06czgINU2-142">
          <mxGeometry width="50" height="50" relative="1" as="geometry">
            <mxPoint x="280" y="970" as="sourcePoint" />
            <mxPoint x="330" y="920" as="targetPoint" />
          </mxGeometry>
        </mxCell>
        <mxCell id="K4Uggm5ie_X06czgINU2-144" value=") _ a ) ( ) ) ( )" style="rounded=0;whiteSpace=wrap;html=1;" vertex="1" parent="1">
          <mxGeometry x="300" y="900" width="90" height="30" as="geometry" />
        </mxCell>
        <mxCell id="K4Uggm5ie_X06czgINU2-145" value="i : 1" style="rounded=0;whiteSpace=wrap;html=1;" vertex="1" parent="1">
          <mxGeometry x="390" y="900" width="30" height="30" as="geometry" />
        </mxCell>
        <mxCell id="K4Uggm5ie_X06czgINU2-146" value="mrNow = 1" style="rounded=0;whiteSpace=wrap;html=1;" vertex="1" parent="1">
          <mxGeometry x="230" y="900" width="70" height="30" as="geometry" />
        </mxCell>
        <mxCell id="K4Uggm5ie_X06czgINU2-147" value="" style="endArrow=classic;html=1;rounded=0;exitX=1;exitY=0.5;exitDx=0;exitDy=0;entryX=0;entryY=0.5;entryDx=0;entryDy=0;" edge="1" parent="1" source="K4Uggm5ie_X06czgINU2-93" target="K4Uggm5ie_X06czgINU2-146">
          <mxGeometry width="50" height="50" relative="1" as="geometry">
            <mxPoint x="280" y="920" as="sourcePoint" />
            <mxPoint x="330" y="870" as="targetPoint" />
          </mxGeometry>
        </mxCell>
        <mxCell id="K4Uggm5ie_X06czgINU2-148" value="" style="endArrow=classic;html=1;rounded=0;exitX=1;exitY=0;exitDx=0;exitDy=0;" edge="1" parent="1" source="K4Uggm5ie_X06czgINU2-145">
          <mxGeometry width="50" height="50" relative="1" as="geometry">
            <mxPoint x="500" y="850" as="sourcePoint" />
            <mxPoint x="510" y="830" as="targetPoint" />
          </mxGeometry>
        </mxCell>
        <mxCell id="K4Uggm5ie_X06czgINU2-149" value="" style="endArrow=classic;html=1;rounded=0;exitX=1;exitY=0.5;exitDx=0;exitDy=0;" edge="1" parent="1" source="K4Uggm5ie_X06czgINU2-145">
          <mxGeometry width="50" height="50" relative="1" as="geometry">
            <mxPoint x="530" y="910" as="sourcePoint" />
            <mxPoint x="550" y="890" as="targetPoint" />
          </mxGeometry>
        </mxCell>
        <mxCell id="K4Uggm5ie_X06czgINU2-150" value="" style="endArrow=classic;html=1;rounded=0;exitX=1;exitY=1;exitDx=0;exitDy=0;" edge="1" parent="1" source="K4Uggm5ie_X06czgINU2-145">
          <mxGeometry width="50" height="50" relative="1" as="geometry">
            <mxPoint x="560" y="920" as="sourcePoint" />
            <mxPoint x="570" y="950" as="targetPoint" />
          </mxGeometry>
        </mxCell>
        <mxCell id="K4Uggm5ie_X06czgINU2-151" value="Рекурсия на глубину 1 так как одна лишняя скобка&lt;br&gt;" style="rounded=0;whiteSpace=wrap;html=1;" vertex="1" parent="1">
          <mxGeometry x="25" y="390" width="120" height="60" as="geometry" />
        </mxCell>
        <mxCell id="K4Uggm5ie_X06czgINU2-152" value="Рекурсия на глубину 2 так как две лишнии скобки" style="rounded=0;whiteSpace=wrap;html=1;" vertex="1" parent="1">
          <mxGeometry x="-55" y="860" width="120" height="60" as="geometry" />
        </mxCell>
      </root>
    </mxGraphModel>
  </diagram>
</mxfile>
